# AST/ASF file generated using VICON BodyLanguage
# -----------------------------------------------
:version 1.10
:name VICON
:units
  mass 1.0
  length 0.45
  angle deg
:documentation
   .ast/.asf automatically generated from VICON data using
   VICON BodyBuilder and BodyLanguage model FoxedUp or BRILLIANT.MOD
:root
   order TX TY TZ RX RY RZ
   axis XYZ
   position 0 0 0  
   orientation 0 0 0 
:bonedata
  begin
     id 1 
     name lhipjoint
     direction 0.707368 -0.647095 0.284426 
     length 2.60678 
     axis 0 0 0  XYZ
  end
  begin
     id 2 
     name lfemur
     direction 0.34202 -0.939693 0  
     length 6.63812  
     axis 0 0 20  XYZ
    dof rx ry rz
    limits (-160.0 20.0)
           (-70.0 70.0)
           (-60.0 70.0)
  end
  begin
     id 3 
     name ltibia
     direction 0.34202 -0.939693 0   
     length 7.51178   
     axis 0 0 20   XYZ
    dof rx
    limits (-10.0 170.0)
  end
  begin
     id 4 
     name lfoot
     direction 0.121251 -0.333133 0.935051   
     length 1.83716   
     axis -90 7.62852e-016 20   XYZ
    dof rx rz
    limits (-45.0 90.0)
           (-70.0 20.0)
  end
  begin
     id 5 
     name ltoes
     direction 1.53611e-011 -4.21962e-011 1   
     length 0.916133   
     axis -90 7.62852e-016 20   XYZ
    dof rx
    limits (-90.0 20.0)
  end
  begin
     id 6 
     name rhipjoint
     direction -0.692419 -0.660507 0.290321   
     length 2.55385  
     axis 0 0 0  XYZ 
  end
  begin
     id 7 
     name rfemur
     direction -0.34202 -0.939693 0   
     length 7.29079   
     axis 0 0 -20   XYZ
    dof rx ry rz
    limits (-160.0 20.0)
           (-70.0 70.0)
           (-70.0 60.0)
  end
  begin
     id 8 
     name rtibia
     direction -0.34202 -0.939693 0   
     length 7.47143   
     axis 0 0 -20   XYZ
    dof rx
    limits (-10.0 170.0)
 end
 begin
     id 9 
     name rfoot
     direction -0.119907 -0.329441 0.936532   
     length 1.79439  
     axis -90 -7.62852e-016 -20   XYZ
    dof rx rz
    limits (-45.0 90.0)
           (-20.0 70.0)
  end
  begin
     id 10 
     name rtoes
     direction -1.53571e-011 -4.21961e-011 1   
     length 0.896039   
     axis -90 -7.62852e-016 -20   XYZ
    dof rx
    limits (-90.0 20.0)
  end
  begin
     id 11 
     name lowerback
     direction 0.0367721 0.992912 -0.113016   
     length 1.73542   
     axis 0 0 0   XYZ
    dof rx ry rz
    limits (-20.0 45.0)
           (-30.0 30.0)
           (-30.0 30.0)
  end
  begin
     id 12 
     name upperback
     direction -0.000314626 0.990678 0.136227   
     length 1.7514   
     axis 0 0 0   XYZ
    dof rx ry rz
    limits (-20.0 45.0)
           (-30.0 30.0)
           (-30.0 30.0)
  end
  begin
     id 13 
     name thorax
     direction -0.0226159 0.981151 0.191917   
     length 1.71471   
     axis 0 0 0   XYZ
    dof rx ry rz
    limits (-20.0 45.0)
           (-30.0 30.0)
           (-30.0 30.0)
  end
  begin
     id 14 
     name lowerneck
     direction 0.0219333 0.998071 0.0580739   
     length 1.65882   
     axis 0 0 0   XYZ
    dof rx ry rz
    limits (-20.0 45.0)
           (-30.0 30.0)
           (-30.0 30.0)
  end
  begin
     id 15 
     name upperneck
     direction 0.0384529 0.980058 -0.194957   
     length 1.6612   
     axis 0 0 0   XYZ
    dof rx ry rz
    limits (-20.0 45.0)
           (-30.0 30.0)
           (-30.0 30.0)
  end
  begin
     id 16
     name head
     direction 0.00592123 0.997421 -0.0715234  
     length 1.68077  
     axis 0 0 0   XYZ
    dof rx ry rz
    limits (-20.0 45.0)
           (-30.0 30.0)
           (-30.0 30.0)
  end
  begin
     id 17 
     name lclavicle
     direction 0.904803 0.417826 0.0821728  
     length 3.42227  
     axis 0 0 0   XYZ
    dof ry rz
    limits (-20.0 10.0)
           (0.0 20.0)
  end
  begin
     id 18 
     name lhumerus
     direction 1 -4.48965e-011 -2.68786e-027   
     length 5.11878   
     axis -180 -30 -90   XYZ
    dof rx ry rz
    limits (-60.0 90.0)
           (-90.0 90.0)
           (-90.0 90.0)
  end
  begin
     id 19
     name lradius
     direction 1 -4.48965e-011 2.61168e-028   
     length 3.59971   
     axis -180 -30 -90   XYZ
    dof rx
    limits (-10.0 170.0)
  end
  begin
     id 20
     name lwrist
     direction 1 -4.48965e-011 1.58672e-027   
     length 1.79985   
     axis -1.65735e-015 90 90   XYZ
    dof ry
    limits (-180.0 0.0)
 end
  begin
     id 21 
     name lhand
     direction 1 -4.48942e-011 3.17344e-027   
     length 0.62877   
     axis -2.02492e-015 90 90   XYZ
    dof rx rz
    limits (-90.0 90.0)
           (-45.0 45.0)
  end
  begin
     id 22 
     name lfingers
     direction 1 -4.49011e-011 6.34687e-027   
     length 0.506931   
     axis -4.04985e-015 90 90   XYZ
    dof rx
    limits (0.0 90.0)
  end
  begin
     id 23
     name lthumb
     direction 0.707107 -6.34982e-011 0.707107   
     length 0.727854   
     axis -90 45 2.85299e-015   XYZ
    dof rx rz
    limits (-45.0 45.0)
           (-45.0 45.0)
  end
  begin
     id 24 
     name rclavicle
     direction -0.945647 0.32488 0.0143075   
     length 3.52737  
     axis 0 0 0   XYZ 
    dof ry rz
    limits (-10.0 20.0)
           (-20.0 0.0)
  end
  begin
     id 25 
     name rhumerus
     direction -1 -4.48962e-011 1.92182e-027  
     length 5.4902   
     axis -180 30 90   XYZ
    dof rx ry rz
    limits (-90.0 60.0)
           (-90.0 90.0)
           (-90.0 90.0)
  end
  begin
     id 26 
     name rradius
     direction -1 -4.48967e-011 -5.97193e-028   
     length 3.20659   
     axis -180 30 90   XYZ
    dof rx
    limits (-10.0 170.0)
  end
  begin
     id 27 
     name rwrist
     direction -1 -4.48964e-011 1.58672e-027   
     length 1.6033   
     axis -1.65735e-015 -90 -90   XYZ
    dof ry
    limits (-180.0 0.0)
  end
  begin
     id 28
     name rhand
     direction -1 -4.49006e-011 3.17344e-027   
     length 0.691885   
     axis -2.02492e-015 -90 -90   XYZ
    dof rx rz
    limits (-90.0 90.0)
           (-45.0 45.0)
  end
  begin
     id 29
     name rfingers
     direction -1 -4.48908e-011 6.34687e-027   
     length 0.557815   
     axis -4.04985e-015 -90 -90   XYZ
    dof rx
    limits (0.0 90.0)
  end
  begin
     id 30
     name rthumb
     direction -0.707107 -6.34999e-011 0.707107   
     length 0.800915   
     axis -90 -45 -2.85299e-015   XYZ
    dof rx rz
    limits (-45.0 45.0)
           (-45.0 45.0)
  end
:hierarchy
  begin
    root lhipjoint rhipjoint lowerback
    lhipjoint lfemur
    lfemur ltibia
    ltibia lfoot
    lfoot ltoes
    rhipjoint rfemur
    rfemur rtibia
    rtibia rfoot
    rfoot rtoes
    lowerback upperback
    upperback thorax
    thorax lowerneck lclavicle rclavicle
    lowerneck upperneck
    upperneck head
    lclavicle lhumerus
    lhumerus lradius
    lradius lwrist
    lwrist lhand lthumb
    lhand lfingers
    rclavicle rhumerus
    rhumerus rradius
    rradius rwrist
    rwrist rhand rthumb
    rhand rfingers
  end

#!OML:ASF I:\Actors\actors\Patient Classification 1\Patient 1\Session 1\Subject1.ASF
:FULLY-SPECIFIED
:DEGREES
153
root 0.543363 17.5631 8.63352 11.0918 10.036 -6.5967
lowerback -0.495164 2.61467 1.81617
upperback -9.21963 3.81183 1.86057
thorax -9.46628 1.84452 0.663653
lowerneck -4.797 -10.9667 -10.8799
upperneck 15.3427 -16.6342 15.9485
head 7.7793 -7.56276 5.39812
rclavicle 1.96051e-014 2.61402e-014
rhumerus -43.7542 16.6128 -98.3283
rradius 29.1194
rwrist 9.18845
rhand 15.8644 -40.3915
rfingers 7.12502
rthumb 40.6647 -65.4136
lclavicle 1.96051e-014 2.61402e-014
lhumerus -42.6842 1.91762 77.1424
lradius 32.7212
lwrist -5.94998
lhand -11.9239 -12.3453
lfingers 7.12502
lthumb 14.1303 17.1543
rfemur -1.51573 28.9371 22.5639
rtibia -0.167187
rfoot -22.4322 -40.7134
rtoes 15.6057
lfemur -2.77079 -45.341 -9.66319
ltibia -4.40443
lfoot -8.24829 45.4513
ltoes -3.67011
154
root 0.562015 17.5573 8.62227 10.8904 10.2745 -6.98381
lowerback -0.174277 2.77483 2.3147
upperback -8.92858 4.0553 1.89704
thorax -9.3021 1.92702 0.398
lowerneck -4.88602 -11.0534 -11.0269
upperneck 14.5969 -16.7141 16.4548
head 7.62676 -7.59478 5.56955
rclavicle -5.02801e-014 -1.30204e-014
rhumerus -44.2435 20.4452 -100.923
rradius 31.0908
rwrist 5.96224
rhand 16.5761 -40.3989
rfingers 7.12502
rthumb 41.3331 -65.2085
lclavicle -5.02801e-014 -1.30204e-014
lhumerus -42.922 0.583633 76.1461
lradius 33.6052
lwrist -4.26288
lhand -11.1672 -12.0364
lfingers 7.12502
lthumb 14.8594 17.4107
rfemur -1.48589 28.3483 22.9829
rtibia -0.016661
rfoot -22.2563 -40.3267
rtoes 15.3253
lfemur -2.57141 -45.2623 -9.38249
ltibia -4.56107
lfoot -8.01038 45.2479
ltoes -4.04969
155
root 0.592306 17.5453 8.60208 10.4281 10.7222 -7.88462
lowerback 0.381522 2.88756 3.64994
upperback -8.58027 4.29534 2.00841
thorax -9.16187 1.94753 -0.261597
lowerneck -4.99549 -11.1153 -11.0959
upperneck 13.758 -16.7377 16.9168
head 7.43051 -7.60278 5.7201
rclavicle -3.35325e-014 -4.50247e-014
rhumerus -45.1542 24.5547 -103.745
rradius 33.3461
rwrist 3.58709
rhand 16.3818 -40.1303
rfingers 7.12502
rthumb 41.1507 -64.9986
lclavicle -3.35325e-014 -4.50247e-014
lhumerus -43.1044 -0.809899 75.0911
lradius 34.4449
lwrist -2.3925
lhand -10.648 -11.3279
lfingers 7.12502
lthumb 15.3596 18.0817
rfemur -1.24006 27.1359 24.0618
rtibia 0.0909913
rfoot -21.6983 -39.5661
rtoes 14.5951
lfemur -2.2726 -44.7531 -8.6649
ltibia -4.67094
lfoot -7.51971 44.4995
ltoes -5.03214
156
root 0.589666 17.557 8.60764 10.8954 10.5566 -6.92894
lowerback 0.0509857 3.04349 2.31978
upperback -8.30126 4.38932 1.77146
thorax -8.7252 2.09209 0.241284
lowerneck -5.1032 -11.1652 -11.0609
upperneck 12.8987 -16.727 17.2675
head 7.20457 -7.59909 5.82226
rclavicle 5.49018e-014 3.76697e-014
rhumerus -45.5096 27.6442 -105.416
rradius 36.0569
rwrist -1.11358
rhand 17.9757 -40.3006
rfingers 7.12502
rthumb 42.6449 -64.6708
lclavicle 5.49018e-014 3.76697e-014
lhumerus -43.3945 -2.51214 74.088
lradius 35.3531
lwrist 0.165253
lhand -10.4877 -10.3181
lfingers 7.12502
lthumb 15.5139 19.0795
rfemur -1.79302 27.3604 22.6883
rtibia 0.288743
rfoot -22.0307 -39.6667
rtoes 15.2626
lfemur -2.79088 -45.4198 -9.39376
ltibia -4.46707
lfoot -7.96117 45.1667
ltoes -4.46606
157
root 0.592659 17.5628 8.60174 11.0048 10.2601 -6.65094
lowerback 0.178273 3.2345 1.82285
upperback -7.9837 4.60702 1.68165
thorax -8.4782 2.23382 0.406685
lowerneck -5.19485 -11.2129 -11.2648
upperneck 12.0598 -16.7407 17.8986
head 7.03645 -7.603 6.05205
rclavicle 1.2393e-014 3.47873e-015
rhumerus -46.0552 30.7828 -107.024
rradius 39.0058
rwrist -5.15886
rhand 19.377 -40.6474
rfingers 7.12502
rthumb 43.9543 -64.5473
lclavicle 1.2393e-014 3.47873e-015
lhumerus -43.8345 -4.48272 73.1293
lradius 36.3907
lwrist 3.31361
lhand -10.3623 -9.18488
lfingers 7.12502
lthumb 15.6347 20.2033
rfemur -2.15798 27.1251 22.1624
rtibia 0.57046
rfoot -21.7375 -39.2527
rtoes 14.9977
lfemur -2.7513 -45.9137 -9.76467
ltibia -4.42563
lfoot -8.52849 45.8725
ltoes -3.55258
158
root 0.606847 17.5587 8.57639 10.9239 10.0288 -6.99513
lowerback 0.665622 3.44543 2.27752
upperback -7.66593 4.91723 1.6721
thorax -8.37742 2.35352 0.102146
lowerneck -5.25242 -11.1994 -11.3166
upperneck 11.0114 -16.6269 18.4281
head 6.75526 -7.55755 6.24345
rclavicle 1.30887e-014 5.36719e-015
rhumerus -47.3168 34.4844 -109.292
rradius 42.0433
rwrist -6.08349
rhand 18.7976 -40.0421
rfingers 7.12502
rthumb 43.4134 -64.1403
lclavicle 1.30887e-014 5.36719e-015
lhumerus -44.3102 -6.68231 72.256
lradius 37.5678
lwrist 6.74399
lhand -9.73403 -7.97345
lfingers 7.12502
lthumb 16.2398 21.3664
rfemur -2.5565 26.188 22.3113
rtibia 0.944772
rfoot -20.9093 -38.2427
rtoes 13.7122
lfemur -2.67153 -45.9489 -9.54097
ltibia -4.39091
lfoot -8.98402 46.1984
ltoes -2.82918
